HIERARCHY
ROOT pelvis
{
  OFFSET 0 100 0
  CHANNELS 6 Xposition Yposition Zposition Zrotation Xrotation Yrotation
  JOINT pelvis_right_femur
  {
    OFFSET -10.78128 -3.44521 -0.5502486
    CHANNELS 3 Zrotation Xrotation Yrotation
    JOINT right_femur_tibia
    {
      OFFSET -0.8047443 -44.0398 -0.1307829
      CHANNELS 3 Zrotation Xrotation Yrotation
      JOINT right_tibia_foot
      {
        OFFSET 3.006224 -47.83518 -5
        CHANNELS 3 Zrotation Xrotation Yrotation
        End Site
        {
          OFFSET 0 -5 15
        }
      }
    }
  }
  JOINT pelvis_left_femur
  {
    OFFSET 10.78128 -3.44521 -0.5502486
    CHANNELS 3 Zrotation Xrotation Yrotation
    JOINT left_femur_tibia
    {
      OFFSET 0.8047443 -44.0398 -0.1307829
      CHANNELS 3 Zrotation Xrotation Yrotation
      JOINT left_tibia_foot
      {
        OFFSET -4.370144 -48.10324 -4.275266
        CHANNELS 3 Zrotation Xrotation Yrotation
        End Site
        {
          OFFSET 0 -5 15
        }
      }
    }
  }
  JOINT pelvis_spine1
  {
    OFFSET 0 6.468898 -3.129235
    CHANNELS 3 Zrotation Xrotation Yrotation
    JOINT spine1
    {
      OFFSET 0 23.15396 4.99043
      CHANNELS 3 Zrotation Xrotation Yrotation
      JOINT spine2
      {
        OFFSET 0 20.79997 -5.064912
        CHANNELS 3 Zrotation Xrotation Yrotation
        JOINT neck
        {
          OFFSET 0 14.38658 9.616178
          CHANNELS 3 Zrotation Xrotation Yrotation
          End Site
          {
            OFFSET 0 20 0
          }
        }
      }
      JOINT right_manubrium
      {
        OFFSET -5.722621 16.35077 3.967754
        CHANNELS 3 Zrotation Xrotation Yrotation
        JOINT right_clavicle
        {
          OFFSET -13.16364 1.694482 -4.693211
          CHANNELS 3 Zrotation Xrotation Yrotation
          JOINT right_humerus
          {
            OFFSET -28.5034 -0.3100689 -2.792744
            CHANNELS 3 Zrotation Xrotation Yrotation
            JOINT right_radius
            {
              OFFSET -25.15693 0.02248979 -1.271978
              CHANNELS 3 Zrotation Xrotation Yrotation
              End Site
              {
                OFFSET -15 0 0
              }
            }
          }
        }
      }
      JOINT left_manubrium
      {
        OFFSET 5.722621 16.35077 3.967754
        CHANNELS 3 Zrotation Xrotation Yrotation
        JOINT left_clavicle
        {
          OFFSET 13.16364 1.694482 -4.693211
          CHANNELS 3 Zrotation Xrotation Yrotation
          JOINT left_humerus
          {
            OFFSET 29.39168 -1.063119 -2.237045
            CHANNELS 3 Zrotation Xrotation Yrotation
            JOINT left_radius
            {
              OFFSET 24.59957 -0.9528479 0.9047498
              CHANNELS 3 Zrotation Xrotation Yrotation
              End Site
              {
                OFFSET 15 -0 -0
              }
            }
          }
        }
      }
    }
  }
}
MOTION
Frames: 17
Frame Time: 0.0416666666667
-1682.48 104.4296 1101.337 -5.464793 12.8229 -159.0222 1.300682 14.15691 -5.133201 -0 29.97433 -0 -14.99935 5.086145 3.427007 -2.786332 -5.964113 -13.06183 -0 14.61738 -0 -5.074113 -11.84529 21.55456 1.316504 -1.493555 6.009872 -1.212448 8.032694 -6.906167 0.4949589 21.24826 9.698864 6.076465 -20.14552 8.444305 5.191324 -18.24102 9.756963 89.9432 39.10238 -23.68909 -0 0 15.18619 -12.62313 13.39739 4.711971 9.376453 -24.34701 -1.543121 -95.25845 33.82623 25.77942 0 0 -29.03326 -1.115011 17.71016 20.41967
-1685.606 104.4555 1095.583 -5.393195 12.87922 -159.3842 1.313392 14.00245 -5.164611 -0 29.9291 -0 -15.01099 5.146635 3.428812 -2.79151 -5.861679 -13.04629 -0 14.65738 -0 -5.05896 -11.91003 21.53868 1.305214 -1.506095 6.001701 -1.208747 8.026128 -6.911677 0.4989365 21.25019 9.704697 6.081801 -20.15367 8.455252 5.203642 -18.23947 9.750668 89.94247 39.08014 -23.71329 -0 0 15.19643 -12.58546 13.375 4.677607 9.386609 -24.34411 -1.541149 -95.29333 33.87355 25.78745 0 0 -29.01245 -1.142365 17.7191 20.45281
-1688.691 104.4733 1089.813 -5.319259 12.93561 -159.7474 1.330368 13.85943 -5.195943 -0 29.8625 -0 -15.01936 5.188289 3.428071 -2.791965 -5.769596 -13.02801 -0 14.69062 -0 -5.046187 -11.96856 21.52189 1.295696 -1.518297 5.994579 -1.206593 8.019799 -6.916767 0.5023733 21.25139 9.711464 6.087944 -20.15925 8.465651 5.215057 -18.23862 9.743728 89.94361 39.06003 -23.73841 -0 0 15.20729 -12.55046 13.35494 4.644044 9.398276 -24.34337 -1.53928 -95.32684 33.9186 25.79673 0 0 -28.99686 -1.167938 17.72753 20.48583
-1691.736 104.4822 1084.026 -5.24252 12.99148 -160.113 1.351105 13.73315 -5.226192 -0 29.77689 -0 -15.02434 5.209886 3.424938 -2.787701 -5.691233 -13.00769 -0 14.71637 -0 -5.036241 -12.01887 21.50486 1.288309 -1.529718 5.988769 -1.206072 8.013938 -6.921256 0.5051401 21.25181 9.718933 6.094685 -20.16205 8.475116 5.225155 -18.2385 9.736392 89.94662 39.04277 -23.76358 -0 0 15.21836 -12.51941 13.33796 4.612489 9.411053 -24.34486 -1.537582 -95.35775 33.95973 25.8069 0 0 -28.98709 -1.190819 17.73518 20.51756
-1694.74 104.4818 1078.222 -5.162581 13.0462 -160.482 1.374983 13.62838 -5.25431 -0 29.67543 -0 -15.02586 5.210813 3.419599 -2.778851 -5.629592 -12.98607 -0 14.7341 -0 -5.029427 -12.05912 21.48832 1.283355 -1.539938 5.984493 -1.207221 8.00876 -6.924986 0.5071275 21.25143 9.726855 6.101804 -20.16191 8.483291 5.233564 -18.23909 9.72892 89.95142 39.02901 -23.78795 -0 0 15.22919 -12.49348 13.32472 4.584079 9.424507 -24.34859 -1.536122 -95.38489 33.99545 25.81755 0 0 -28.98359 -1.210194 17.74178 20.5469
-1697.704 104.472 1072.401 -5.079121 13.09914 -160.8556 1.401261 13.54924 -5.279229 -0 29.56197 -0 -15.02392 5.191056 3.412254 -2.765675 -5.587194 -12.96388 -0 14.74344 -0 -5.025898 -12.08768 21.47294 1.281062 -1.54857 5.98192 -1.210026 8.004454 -6.927823 0.5082505 21.25024 9.734969 6.109065 -20.15879 8.48986 5.239965 -18.24035 9.721573 89.95793 39.01929 -23.8107 -0 0 15.23933 -12.47367 13.31576 4.55985 9.438187 -24.35448 -1.534959 -95.40723 34.02445 25.82826 0 0 -28.98664 -1.22537 17.74709 20.5728
-1700.63 104.4531 1066.562 -4.991908 13.14961 -161.2347 1.429099 13.49897 -5.299902 -0 29.44087 -0 -15.01858 5.151179 3.403105 -2.748557 -5.565952 -12.94182 -0 14.74418 -0 -5.025671 -12.10329 21.45935 1.281574 -1.555282 5.981161 -1.214415 8.001177 -6.929663 0.5084534 21.2483 9.743006 6.11623 -20.15273 8.494567 5.244104 -18.24223 9.714606 89.96598 39.01401 -23.83109 -0 0 15.24837 -12.46079 13.31151 4.540695 9.451632 -24.36239 -1.534143 -95.42389 34.04565 25.83862 0 0 -28.99632 -1.235797 17.75094 20.59438
-1703.518 104.426 1060.704 -4.900809 13.19694 -161.62 1.45756 13.47977 -5.315361 -0 29.31683 -0 -15.00991 5.092313 3.392355 -2.727999 -5.567069 -12.92061 -0 14.73618 -0 -5.028636 -12.10504 21.4481 1.284934 -1.559805 5.982259 -1.220264 7.99905 -6.930435 0.5077128 21.24564 9.750701 6.123058 -20.1439 8.497222 5.245805 -18.24464 9.708261 89.97537 39.01344 -23.84844 -0 0 15.25593 -12.45536 13.31219 4.527336 9.464385 -24.37212 -1.533713 -95.43419 34.05824 25.84823 0 0 -29.01246 -1.241087 17.75318 20.61089
-1706.367 104.3914 1054.826 -4.805807 13.24046 -162.012 1.485642 13.49275 -5.32477 -0 29.19463 -0 -14.99804 5.016145 3.380211 -2.704621 -5.59094 -12.90088 -0 14.71944 -0 -5.034581 -12.09247 21.4396 1.291079 -1.561949 5.985192 -1.227391 7.998154 -6.930104 0.5060409 21.24235 9.757792 6.129313 -20.13255 8.497711 5.244977 -18.2475 9.702758 89.98583 39.01767 -23.86216 -0 0 15.26172 -12.45768 13.31786 4.520295 9.476002 -24.38337 -1.533697 -95.43768 34.06172 25.85674 0 0 -29.03468 -1.241025 17.75373 20.62173
-1709.18 104.3508 1048.928 -4.707016 13.27955 -162.4109 1.512296 13.53775 -5.327496 -0 29.07896 -0 -14.98319 4.924908 3.366911 -2.679154 -5.637085 -12.88325 -0 14.6941 -0 -5.043217 -12.06567 21.43416 1.299834 -1.56161 5.989867 -1.23556 7.998525 -6.928672 0.5034866 21.23855 9.76403 6.134769 -20.11905 8.496003 5.241621 -18.2507 9.698293 89.99703 39.02663 -23.87176 -0 0 15.26548 -12.4677 13.32841 4.519876 9.486066 -24.39575 -1.534102 -95.43416 34.05591 25.86383 0 0 -29.06231 -1.235576 17.75257 20.62653
-1711.955 104.3056 1043.009 -4.604688 13.31367 -162.8168 1.536472 13.61338 -5.323167 -0 28.97421 -0 -14.96564 4.821376 3.352734 -2.652432 -5.704114 -12.86826 -0 14.66052 -0 -5.054193 -12.02527 21.43192 1.310909 -1.558777 5.996123 -1.244489 8.000155 -6.926179 0.5001353 21.23436 9.769185 6.139219 -20.10388 8.49215 5.235835 -18.25416 9.695028 90.00858 39.04003 -23.87687 -0 0 15.2671 -12.48512 13.34348 4.526147 9.494197 -24.40882 -1.53492 -95.42371 34.04095 25.86927 0 0 -29.09443 -1.224891 17.74971 20.62505
-1714.694 104.2576 1037.068 -4.499225 13.34241 -163.2293 1.557161 13.71701 -5.31173 -0 28.88428 -0 -14.94579 4.708835 3.33803 -2.625376 -5.789743 -12.85641 -0 14.61928 -0 -5.067125 -11.9725 21.43287 1.323908 -1.553538 6.003739 -1.253853 8.00299 -6.922703 0.4961066 21.22993 9.773053 6.142481 -20.08759 8.486287 5.227811 -18.25774 9.693089 90.02006 39.05745 -23.87725 -0 0 15.26653 -12.50933 13.36254 4.538936 9.500072 -24.42209 -1.536126 -95.40667 34.01733 25.87288 0 0 -29.1299 -1.209306 17.74525 20.61731
-1717.396 104.2083 1031.105 -4.391175 13.36556 -163.6479 1.573449 13.84483 -5.293477 -0 28.8124 -0 -14.9242 4.591045 3.323227 -2.598969 -5.890847 -12.84814 -0 14.57134 -0 -5.081604 -11.90918 21.43691 1.338342 -1.546071 6.012437 -1.2633 8.006934 -6.918359 0.4915508 21.22543 9.775466 6.144408 -20.07079 8.47863 5.217829 -18.26135 9.692559 90.031 39.07826 -23.8728 -0 0 15.26382 -12.53946 13.38491 4.557827 9.503433 -24.43501 -1.537674 -95.38366 33.98585 25.87455 0 0 -29.16737 -1.189336 17.73931 20.60351
-1720.062 104.1598 1025.119 -4.281215 13.38314 -164.0718 1.584574 13.99206 -5.269062 -0 28.76108 -0 -14.90155 4.472155 3.308841 -2.574221 -6.003578 -12.8438 -0 14.51802 -0 -5.097206 -11.83766 21.44378 1.353648 -1.536649 6.021895 -1.272462 8.01185 -6.913296 0.4866424 21.22102 9.7763 6.144894 -20.05416 8.469461 5.206253 -18.26488 9.693477 90.04092 39.1017 -23.86356 -0 0 15.2591 -12.57438 13.40971 4.582173 9.504103 -24.44705 -1.539504 -95.35551 33.94762 25.87424 0 0 -29.20534 -1.165659 17.73209 20.58407
-1722.69 104.1136 1019.11 -4.170132 13.39542 -164.4999 1.58998 14.15306 -5.239477 -0 28.732 -0 -14.87867 4.356588 3.295459 -2.552134 -6.123527 -12.84363 -0 14.46106 -0 -5.113495 -11.76073 21.45316 1.369214 -1.525619 6.031758 -1.280972 8.017563 -6.907693 0.4815728 21.2169 9.775484 6.143887 -20.03835 8.459124 5.193512 -18.26821 9.69583 90.04938 39.12687 -23.84975 -0 0 15.2526 -12.61279 13.43598 4.611117 9.502003 -24.45768 -1.541543 -95.3233 33.904 25.87199 0 0 -29.24225 -1.139105 17.72384 20.55959
-1725.282 104.0714 1013.078 -4.058781 13.40297 -164.9311 1.589354 14.32167 -5.206002 -0 28.72602 -0 -14.8565 4.248867 3.283712 -2.533644 -6.245932 -12.8478 -0 14.40257 -0 -5.130019 -11.6815 21.46467 1.384412 -1.513397 6.041654 -1.288483 8.023872 -6.901753 0.4765415 21.21321 9.773011 6.141392 -20.02402 8.448005 5.180088 -18.27123 9.699556 90.05596 39.1528 -23.83179 -0 0 15.24458 -12.65323 13.46268 4.643613 9.497156 -24.46643 -1.543708 -95.28823 33.85657 25.86789 0 0 -29.27653 -1.110624 17.71485 20.53091
-1727.835 104.0347 1007.022 -3.94804 13.40662 -165.364 1.582665 14.49142 -5.170127 -0 28.74313 -0 -14.83603 4.153413 3.27423 -2.519574 -6.365909 -12.85629 -0 14.345 -0 -5.146305 -11.60324 21.47789 1.398626 -1.500445 6.05121 -1.294684 8.030548 -6.895696 0.4717466 21.21011 9.768939 6.137476 -20.01176 8.436519 5.16649 -18.27383 9.704538 90.06033 39.17849 -23.81024 -0 0 15.23537 -12.69419 13.48877 4.67847 9.4897 -24.47291 -1.545908 -95.25164 33.80708 25.86208 0 0 -29.30674 -1.081259 17.70543 20.499
